<?xml version="1.0" encoding="UTF-8" standalone="no"?>
<!-- Created with Inkscape (http://www.inkscape.org/) -->
<svg
   xmlns:dc="http://purl.org/dc/elements/1.1/"
   xmlns:cc="http://creativecommons.org/ns#"
   xmlns:rdf="http://www.w3.org/1999/02/22-rdf-syntax-ns#"
   xmlns:svg="http://www.w3.org/2000/svg"
   xmlns="http://www.w3.org/2000/svg"
   xmlns:xlink="http://www.w3.org/1999/xlink"
   xmlns:sodipodi="http://sodipodi.sourceforge.net/DTD/sodipodi-0.dtd"
   xmlns:inkscape="http://www.inkscape.org/namespaces/inkscape"
   width="48px"
   height="48px"
   id="svg5729"
   sodipodi:version="0.32"
   inkscape:version="0.46"
   sodipodi:docname="bevaegelse_loeb.svg"
   inkscape:output_extension="org.inkscape.output.svg.inkscape">
  <defs
     id="defs5731">
    <linearGradient
       inkscape:collect="always"
       id="linearGradient4933">
      <stop
         style="stop-color:#5aa02c;stop-opacity:1;"
         offset="0"
         id="stop4935" />
      <stop
         style="stop-color:#5aa02c;stop-opacity:0;"
         offset="1"
         id="stop4937" />
    </linearGradient>
    <linearGradient
       inkscape:collect="always"
       xlink:href="#linearGradient4933"
       id="linearGradient5673"
       gradientUnits="userSpaceOnUse"
       gradientTransform="translate(-2.8284271,97.580736)"
       x1="583.26878"
       y1="605.26286"
       x2="627.84438"
       y2="605.26286" />
    <inkscape:perspective
       sodipodi:type="inkscape:persp3d"
       inkscape:vp_x="0 : 24 : 1"
       inkscape:vp_y="0 : 1000 : 0"
       inkscape:vp_z="48 : 24 : 1"
       inkscape:persp3d-origin="24 : 16 : 1"
       id="perspective5737" />
  </defs>
  <sodipodi:namedview
     id="base"
     pagecolor="#ffffff"
     bordercolor="#666666"
     borderopacity="1.0"
     inkscape:pageopacity="0.0"
     inkscape:pageshadow="2"
     inkscape:zoom="7"
     inkscape:cx="24"
     inkscape:cy="18.285714"
     inkscape:current-layer="layer1"
     showgrid="true"
     inkscape:grid-bbox="true"
     inkscape:document-units="px"
     inkscape:window-width="640"
     inkscape:window-height="675"
     inkscape:window-x="66"
     inkscape:window-y="66" />
  <metadata
     id="metadata5734">
    <rdf:RDF>
      <cc:Work
         rdf:about="">
        <dc:format>image/svg+xml</dc:format>
        <dc:type
           rdf:resource="http://purl.org/dc/dcmitype/StillImage" />
      </cc:Work>
    </rdf:RDF>
  </metadata>
  <g
     id="layer1"
     inkscape:label="Layer 1"
     inkscape:groupmode="layer">
    <g
       id="bevaegelse_loeb"
       transform="matrix(0.4815686,0,0,0.4815686,-266.69998,-319.1786)">
      <path
         id="path4879"
         d="M 597.42157,683.94292 C 596.81253,683.13087 595.32089,687.94631 595.17157,688.69292 C 594.73019,690.89984 593.68798,692.62728 593.17157,694.69292 C 592.67322,696.68631 591.66774,699.28136 590.42157,700.94292 C 589.0879,702.72115 588.59687,705.59233 587.67157,707.44292 C 587.5049,707.77626 587.33824,708.10959 587.17157,708.44292 C 587.0372,708.71166 586.83824,708.94292 586.67157,709.19292 C 585.28258,711.27641 585.11572,713.24877 583.17157,715.19292 C 582.06045,716.30405 581.17456,718.68794 580.42157,719.94292 C 579.44981,721.56252 578.74567,723.58645 580.17157,723.94292 C 583.67695,724.81927 588.65426,723.40474 592.42157,723.94292 C 596.82382,724.57182 602.38762,723.69292 606.92157,723.69292 C 609.5419,723.69292 612.12429,723.44292 614.67157,723.44292 C 617.13599,723.44292 619.47569,723.69292 621.92157,723.69292 C 623.63246,723.69292 625.28158,723.66959 626.92157,723.94292 C 628.47481,724.2018 625.32677,721.34812 624.67157,720.69292 C 622.83586,718.85722 621.68091,717.29182 620.42157,715.19292 C 618.94687,712.73508 617.4643,710.23565 615.42157,708.19292 C 613.60123,706.37258 611.88308,703.3467 610.92157,700.94292 C 609.89689,698.38121 608.66091,696.17161 607.42157,693.69292 C 606.3333,691.51637 605.71868,688.99003 603.92157,687.19292 C 602.45392,685.72527 602.38491,683.90626 600.92157,682.44292 C 599.5157,681.03705 600.39155,679.64962 598.67157,681.94292 C 597.46171,683.55607 597.42157,685.04624 597.42157,685.44292"
         style="fill:none;fill-rule:evenodd;stroke:#000000;stroke-width:2;stroke-linecap:butt;stroke-linejoin:miter;stroke-miterlimit:4;stroke-dasharray:none;stroke-opacity:1" />
      <path
         id="path4881"
         d="M 599.42157,668.69292 C 598.55844,669.84377 596.40512,668.70279 595.17157,669.44292 C 593.15701,670.65166 593.17157,672.66492 593.17157,674.69292 C 593.17157,676.82092 594.92118,678.56773 596.67157,679.44292 C 598.76685,680.49056 601.04922,680.54186 603.17157,679.69292 C 605.02954,678.94973 607.02431,678.23745 607.92157,676.44292 C 608.8907,674.50467 607.21169,672.73304 605.92157,671.44292 C 604.48724,670.00859 603.20004,669.38754 601.42157,668.94292 C 599.52714,668.46932 603.64955,668.69292 599.42157,668.69292 z"
         style="fill:none;fill-rule:evenodd;stroke:#000000;stroke-width:1;stroke-linecap:butt;stroke-linejoin:miter;stroke-miterlimit:4;stroke-dasharray:none;stroke-opacity:1" />
      <path
         id="path4883"
         d="M 605.92157,724.44292 C 605.1328,724.24573 607.66341,727.43476 608.17157,727.94292 C 609.42999,729.20135 610.6801,730.20998 611.42157,731.69292 C 612.00748,732.86475 613.482,734.25336 614.17157,734.94292 C 615.00535,735.7767 615.52927,737.40833 615.92157,738.19292 C 616.54859,739.44696 614.83792,740.35975 613.67157,740.94292 C 612.83641,741.3605 611.6114,743.02314 610.92157,743.94292 C 610.22388,744.87317 609.11321,745.67419 608.42157,746.19292 C 607.42653,746.9392 606.70624,748.65826 605.67157,749.69292 C 604.67587,750.68862 602.81322,751.26375 604.67157,752.19292 C 606.31988,753.01708 607.06968,753.429 608.42157,754.44292 C 609.22893,755.04844 609.90798,756.42933 610.42157,756.94292 C 611.0763,757.59766 610.67373,756.85887 611.17157,756.69292"
         style="fill:none;fill-rule:evenodd;stroke:#000000;stroke-width:2;stroke-linecap:butt;stroke-linejoin:miter;stroke-miterlimit:4;stroke-dasharray:none;stroke-opacity:1" />
      <path
         id="path4885"
         d="M 598.92157,724.69292 C 600.26657,726.03792 596.878,727.92685 596.17157,729.69292 C 595.45898,731.47441 594.2496,733.50555 593.17157,734.94292 C 592.11354,736.35363 591.60969,738.37939 590.67157,739.94292 C 589.73669,741.50106 588.85203,742.76246 587.42157,744.19292 C 586.6763,744.93819 586.04653,746.69301 585.67157,747.44292 C 585.0608,748.66446 584.46431,749.35745 583.92157,750.44292 C 583.34925,751.58757 582.96894,752.50344 582.67157,753.69292 C 582.32195,755.09141 581.9329,754.98824 582.17157,755.94292 C 582.42789,756.9682 586.0306,758.24744 586.92157,758.69292 C 588.38247,759.42337 589.74285,760.23569 590.92157,760.94292"
         style="fill:none;fill-rule:evenodd;stroke:#000000;stroke-width:2;stroke-linecap:butt;stroke-linejoin:miter;stroke-miterlimit:4;stroke-dasharray:none;stroke-opacity:1" />
      <path
         id="path4887"
         d="M 607.67157,738.19292 C 609.10785,739.05469 604.32376,738.41756 602.67157,738.69292 C 601.89176,738.82289 601.17157,739.19292 600.42157,739.44292"
         style="opacity:0.65957444;fill:none;fill-rule:evenodd;stroke:#000000;stroke-width:1px;stroke-linecap:butt;stroke-linejoin:miter;stroke-opacity:1" />
      <path
         id="path4889"
         d="M 604.67157,734.19292 C 603.75071,734.3464 599.55523,734.64418 598.92157,734.69292"
         style="opacity:0.65957444;fill:none;fill-rule:evenodd;stroke:#000000;stroke-width:1px;stroke-linecap:butt;stroke-linejoin:miter;stroke-opacity:1" />
      <path
         id="path4891"
         d="M 596.92157,748.94292 C 593.41838,749.52679 593.30742,750.04288 591.17157,750.69292"
         style="opacity:0.65957444;fill:none;fill-rule:evenodd;stroke:#000000;stroke-width:1px;stroke-linecap:butt;stroke-linejoin:miter;stroke-opacity:1" />
      <path
         id="path4893"
         d="M 582.92157,736.44292 C 580.30245,736.87944 577.51275,736.54513 574.92157,737.19292"
         style="opacity:0.65957444;fill:none;fill-rule:evenodd;stroke:#000000;stroke-width:1px;stroke-linecap:butt;stroke-linejoin:miter;stroke-opacity:1" />
      <path
         id="path4895"
         d="M 573.17157,726.19292 C 572.92497,726.23402 572.67157,726.19292 572.42157,726.19292 C 570.26346,726.19292 568.11923,726.94292 565.92157,726.94292"
         style="opacity:0.65957444;fill:none;fill-rule:evenodd;stroke:#000000;stroke-width:1px;stroke-linecap:butt;stroke-linejoin:miter;stroke-opacity:1" />
      <path
         id="path4897"
         d="M 574.17157,717.69292 C 572.58824,717.69292 571.0049,717.69292 569.42157,717.69292"
         style="opacity:0.65957444;fill:none;fill-rule:evenodd;stroke:#000000;stroke-width:1px;stroke-linecap:butt;stroke-linejoin:miter;stroke-opacity:1" />
      <path
         id="path4899"
         d="M 581.17157,676.19292 C 581.1104,676.19292 578.37882,676.44292 577.42157,676.44292"
         style="opacity:0.65957444;fill:none;fill-rule:evenodd;stroke:#000000;stroke-width:1px;stroke-linecap:butt;stroke-linejoin:miter;stroke-opacity:1" />
      <path
         id="path4901"
         d="M 580.67157,669.69292 C 579.03744,669.69292 577.55333,669.69188 575.92157,669.94292"
         style="opacity:0.65957444;fill:none;fill-rule:evenodd;stroke:#000000;stroke-width:1px;stroke-linecap:butt;stroke-linejoin:miter;stroke-opacity:1" />
      <path
         id="path4903"
         d="M 598.42157,676.19292 C 598.39191,677.66496 599.5298,677.78248 601.17157,678.19292 C 602.52556,678.53142 603.7948,676.81969 604.17157,676.44292 C 604.29273,676.32176 604.8663,675.51662 604.92157,675.44292"
         style="fill:none;fill-rule:evenodd;stroke:#000000;stroke-width:1px;stroke-linecap:butt;stroke-linejoin:miter;stroke-opacity:1" />
      <path
         id="path4905"
         d="M 599.42157,671.94292 C 600.43924,670.92525 601.38443,675.00723 601.42157,675.19292"
         style="fill:none;fill-rule:evenodd;stroke:#000000;stroke-width:1px;stroke-linecap:butt;stroke-linejoin:miter;stroke-opacity:1" />
      <path
         id="path4907"
         d="M 603.42157,671.94292 C 603.7162,671.64829 603.76734,673.04398 604.17157,672.94292 C 604.5758,672.84187 603.80844,672.09767 603.42157,671.94292 z"
         style="fill:none;fill-rule:evenodd;stroke:#000000;stroke-width:1px;stroke-linecap:butt;stroke-linejoin:miter;stroke-opacity:1" />
      <path
         id="path4909"
         d="M 596.42157,672.44292 C 596.42157,672.44292 596.42157,672.44292 596.42157,672.44292 z"
         style="fill:none;fill-rule:evenodd;stroke:#000000;stroke-width:2;stroke-linecap:butt;stroke-linejoin:miter;stroke-miterlimit:4;stroke-dasharray:none;stroke-opacity:1" />
      <path
         id="path4913"
         d="M 596.67157,672.44292 C 596.67157,672.44292 596.67157,672.44292 596.67157,672.44292 z"
         style="fill:none;fill-rule:evenodd;stroke:#000000;stroke-width:2;stroke-linecap:butt;stroke-linejoin:miter;stroke-miterlimit:4;stroke-dasharray:none;stroke-opacity:1" />
      <path
         id="path4915"
         d="M 596.42157,672.69292 C 596.7549,672.77626 596.58824,673.35959 596.67157,673.69292"
         style="fill:none;fill-rule:evenodd;stroke:#000000;stroke-width:1px;stroke-linecap:butt;stroke-linejoin:miter;stroke-opacity:1" />
      <path
         id="path4917"
         d="M 607.67157,662.94292 C 607.75242,662.96313 607.67157,662.77626 607.67157,662.94292 z"
         style="fill:none;fill-rule:evenodd;stroke:#000000;stroke-width:2;stroke-linecap:butt;stroke-linejoin:miter;stroke-miterlimit:4;stroke-dasharray:none;stroke-opacity:1" />
      <path
         id="path4931"
         d="M 580.70316,722.57402 C 580.50376,722.05439 582.6761,717.83284 584.1342,715.90643 C 585.54703,714.03983 588.80764,707.84666 589.74345,705.25232 C 590.11944,704.20996 590.81434,702.69121 591.28768,701.87732 C 592.76382,699.33916 593.30734,697.99289 595.40916,691.66864 C 597.38955,685.70979 597.46767,685.53224 598.04549,685.67726 C 598.56294,685.80713 598.64095,685.73805 598.64095,685.1499 C 598.64095,684.50521 599.31578,682.77251 599.56686,682.77251 C 599.8367,682.77251 600.70218,683.99103 601.43132,685.39751 C 601.85902,686.22251 602.69845,687.52143 603.29674,688.28399 C 603.89502,689.04655 604.9913,691.01531 605.73287,692.65899 C 607.23647,695.99161 610.38385,702.60852 611.19747,704.14751 C 612.04022,705.74161 613.4869,707.76034 615.13567,709.64303 C 615.97642,710.60306 617.67705,712.99061 618.9148,714.94869 C 620.15255,716.90678 621.7444,719.15879 622.45222,719.95318 C 623.16002,720.74756 623.97017,721.66601 624.25255,721.99418 L 624.76595,722.59086 L 619.39095,722.45047 C 616.4347,722.37326 611.42845,722.42216 608.26595,722.55913 C 605.10345,722.6961 597.64167,722.84304 591.68422,722.88567 C 582.0652,722.95449 580.83577,722.9196 580.70316,722.57402 L 580.70316,722.57402 z"
         style="opacity:1;fill:url(#linearGradient5673);fill-opacity:1;stroke:#ffffff;stroke-width:0.5;stroke-miterlimit:4;stroke-dasharray:none;stroke-opacity:1" />
      <path
         id="path4974"
         d="M 600.67157,692.44292 C 603.44445,693.82936 597.03168,697.46278 595.17157,699.94292 C 593.31521,702.41807 591.95716,705.37174 590.67157,707.94292 C 589.18173,710.92261 588.07129,712.84405 587.17157,716.44292 C 586.60667,718.70253 585.08448,720.61711 584.17157,722.44292 C 583.23048,724.3251 582.59037,726.60533 581.67157,728.44292 C 580.34273,731.1006 581.13034,732.77802 581.17157,732.94292"
         style="fill:none;fill-rule:evenodd;stroke:#000000;stroke-width:2;stroke-linecap:butt;stroke-linejoin:miter;stroke-miterlimit:4;stroke-dasharray:none;stroke-opacity:1" />
      <path
         id="path4976"
         d="M 610.17157,694.44292 C 609.74305,695.29996 618.67816,701.44951 620.17157,702.94292 C 620.83824,703.60959 621.5049,704.27626 622.17157,704.94292 C 625.34855,708.1199 626.59171,710.36306 629.67157,713.44292 C 632.00932,715.78067 635.56934,716.84069 638.17157,719.44292 C 639.24442,720.51577 639.94146,720.85883 640.67157,721.44292"
         style="fill:none;fill-rule:evenodd;stroke:#000000;stroke-width:2;stroke-linecap:butt;stroke-linejoin:miter;stroke-miterlimit:4;stroke-dasharray:none;stroke-opacity:1" />
      <path
         id="path4978"
         d="M 640.17157,735.94292 C 640.76083,736.53218 638.5049,735.94292 640.17157,735.94292 z"
         style="fill:none;fill-rule:evenodd;stroke:#000000;stroke-width:1px;stroke-linecap:butt;stroke-linejoin:miter;stroke-opacity:1" />
    </g>
  </g>
</svg>
