<?xml version="1.0" encoding="UTF-8" standalone="no"?>
<!-- Created with Inkscape (http://www.inkscape.org/) -->
<svg
   xmlns:dc="http://purl.org/dc/elements/1.1/"
   xmlns:cc="http://creativecommons.org/ns#"
   xmlns:rdf="http://www.w3.org/1999/02/22-rdf-syntax-ns#"
   xmlns:svg="http://www.w3.org/2000/svg"
   xmlns="http://www.w3.org/2000/svg"
   xmlns:xlink="http://www.w3.org/1999/xlink"
   xmlns:sodipodi="http://sodipodi.sourceforge.net/DTD/sodipodi-0.dtd"
   xmlns:inkscape="http://www.inkscape.org/namespaces/inkscape"
   width="48px"
   height="48px"
   id="svg5868"
   sodipodi:version="0.32"
   inkscape:version="0.46"
   sodipodi:docname="bevaegelse_boldspil.svg"
   inkscape:output_extension="org.inkscape.output.svg.inkscape">
  <defs
     id="defs5870">
    <linearGradient
       inkscape:collect="always"
       id="linearGradient5410">
      <stop
         style="stop-color:#5aa02c;stop-opacity:1;"
         offset="0"
         id="stop5412" />
      <stop
         style="stop-color:#5aa02c;stop-opacity:0;"
         offset="1"
         id="stop5414" />
    </linearGradient>
    <linearGradient
       inkscape:collect="always"
       xlink:href="#linearGradient5410"
       id="linearGradient5416"
       x1="621.39465"
       y1="724.0621"
       x2="677.75573"
       y2="724.0621"
       gradientUnits="userSpaceOnUse"
       gradientTransform="translate(-2.8284271,97.580736)" />
    <inkscape:perspective
       sodipodi:type="inkscape:persp3d"
       inkscape:vp_x="0 : 24 : 1"
       inkscape:vp_y="0 : 1000 : 0"
       inkscape:vp_z="48 : 24 : 1"
       inkscape:persp3d-origin="24 : 16 : 1"
       id="perspective5876" />
  </defs>
  <sodipodi:namedview
     id="base"
     pagecolor="#ffffff"
     bordercolor="#666666"
     borderopacity="1.0"
     inkscape:pageopacity="0.0"
     inkscape:pageshadow="2"
     inkscape:zoom="7"
     inkscape:cx="24"
     inkscape:cy="24"
     inkscape:current-layer="layer1"
     showgrid="true"
     inkscape:grid-bbox="true"
     inkscape:document-units="px"
     inkscape:window-width="640"
     inkscape:window-height="675"
     inkscape:window-x="154"
     inkscape:window-y="154" />
  <metadata
     id="metadata5873">
    <rdf:RDF>
      <cc:Work
         rdf:about="">
        <dc:format>image/svg+xml</dc:format>
        <dc:type
           rdf:resource="http://purl.org/dc/dcmitype/StillImage" />
      </cc:Work>
    </rdf:RDF>
  </metadata>
  <g
     id="layer1"
     inkscape:label="Layer 1"
     inkscape:groupmode="layer">
    <g
       id="bevaegelse_boldspil"
       transform="matrix(0.4762791,0,0,0.4762791,-284.84127,-369.70059)">
      <path
         id="path5232"
         d="M 638.87097,805.22837 C 638.76556,805.28107 638.87097,804.99266 638.87097,805.22837 z"
         style="fill:none;fill-rule:evenodd;stroke:#000000;stroke-width:1px;stroke-linecap:butt;stroke-linejoin:miter;stroke-opacity:1" />
      <path
         id="path5236"
         d="M 639.22453,800.27862 C 637.89526,802.93715 635.81217,807.3953 634.27478,811.23877 C 632.79648,814.93452 631.44066,818.32122 629.67859,821.84538 C 629.44288,822.31678 629.20718,822.78819 628.97148,823.25959 C 627.36744,826.46767 625.25947,829.26877 624.37529,832.80553 C 623.61453,835.84855 621.60636,837.87084 620.83975,840.93726 C 620.26093,843.25253 618.36342,845.53539 617.30422,846.94767 C 617.04203,847.29725 623.65746,846.5953 630.03214,845.88701 C 637.16998,845.09391 644.77971,844.82635 651.95245,844.82635 C 657.05832,844.82635 662.0567,844.47279 667.15525,844.47279 C 669.07671,844.47279 677.27015,846.10242 674.93342,843.76569 C 671.46146,840.29373 667.56946,837.10883 663.97326,833.51264 C 660.89781,830.43718 656.66732,824.5576 654.78088,820.78472 C 652.99214,817.20725 650.24444,814.2166 648.77047,810.53167 C 647.4991,807.35325 645.39578,804.39303 644.17427,801.33928 C 643.34828,799.27429 642.54174,797.01355 641.6994,795.32887 C 641.27039,794.47084 639.10944,801.08426 638.87097,802.75349 C 638.85431,802.87016 638.87097,802.9892 638.87097,803.10705"
         style="fill:none;fill-rule:evenodd;stroke:#000000;stroke-width:2;stroke-linecap:butt;stroke-linejoin:miter;stroke-miterlimit:4;stroke-dasharray:none;stroke-opacity:1" />
      <path
         id="path5278"
         d="M 631.0928,848.36188 C 631.11231,848.36578 628.24284,853.3547 627.55727,854.72584 C 626.2817,857.27698 625.4744,859.24513 624.37529,861.44336 C 623.37848,863.43697 622.60752,865.32944 622.60752,867.80732 C 622.60752,869.25953 621.08077,871.21436 620.4862,872.40351 C 619.34846,874.67898 625.44272,873.55425 627.91082,874.17128 C 630.668,874.86057 629.73096,874.5772 630.38569,875.23194"
         style="fill:none;fill-rule:evenodd;stroke:#000000;stroke-width:2;stroke-linecap:butt;stroke-linejoin:miter;stroke-miterlimit:4;stroke-dasharray:none;stroke-opacity:1" />
      <path
         id="path5286"
         d="M 643.11361,847.65477 C 645.17477,847.13948 645.14684,851.45576 646.64915,852.95807 C 648.40282,854.71174 649.50336,856.5194 651.24534,858.26138 C 652.71334,859.72938 653.49477,861.84987 654.78088,863.56468 C 655.96113,865.13834 656.36515,866.37967 657.25575,868.16087 C 658.12771,869.9048 659.20321,870.64157 660.08418,872.40351 C 661.13462,874.50439 660.90547,874.82129 662.9126,873.81772 C 664.72471,872.91167 666.51477,872.04996 668.56946,872.04996"
         style="fill:none;fill-rule:evenodd;stroke:#000000;stroke-width:2;stroke-linecap:butt;stroke-linejoin:miter;stroke-miterlimit:4;stroke-dasharray:none;stroke-opacity:1" />
      <path
         id="path5290"
         d="M 671.83983,854.63745 C 671.85115,854.63066 670.94112,854.30751 669.89528,854.72584 C 669.72227,854.79505 669.54173,854.84369 669.36495,854.90262 C 668.79047,855.09411 667.91225,855.64822 667.5088,856.05167 C 666.91814,856.64233 666.21613,857.16203 665.91781,857.90782 C 665.64349,858.59363 665.62712,859.37308 665.29909,860.02914 C 665.09431,860.4387 665.29909,861.5047 665.29909,861.97369 C 665.29909,862.66625 665.60898,863.34637 665.74103,864.00662 C 665.8633,864.61797 666.15959,865.12712 666.27136,865.686 C 666.39223,866.29032 667.13853,866.87168 667.5088,867.36537 C 667.88685,867.86945 668.19121,868.23885 668.30429,868.6912 C 668.40428,869.09113 668.96782,869.55329 669.36495,869.75186 C 669.93373,870.03625 670.73538,870.1938 671.39789,870.1938 C 672.29224,870.1938 673.22646,870.28219 674.13793,870.28219 C 675.02782,870.28219 676.08383,869.83957 676.78958,869.4867 C 677.67844,869.04226 678.11477,868.75796 678.9109,868.16087 C 679.61048,867.63618 679.7972,867.44165 679.97156,866.56988 C 680.10104,865.92248 680.1613,865.28059 680.32511,864.62534 C 680.47836,864.01232 680.6161,863.45591 680.85544,862.85757 C 681.09803,862.2511 680.94383,861.38437 680.94383,860.73625 C 680.94383,859.85917 680.84435,859.08983 680.67866,858.26137 C 680.56165,857.67632 679.84589,857.12617 679.618,856.67038 C 679.34795,856.13027 678.82164,855.69725 678.38057,855.25617 C 677.96648,854.84208 677.29908,854.58805 676.78958,854.46068 C 676.28468,854.33445 675.61575,854.2839 675.1102,854.2839 C 674.50773,854.2839 674.0226,854.19551 673.43082,854.19551 C 672.76332,854.19551 671.59209,854.48881 671.39789,854.37229 C 671.13066,854.21195 670.81308,854.69193 670.69078,854.81423"
         style="fill:none;fill-rule:evenodd;stroke:#000000;stroke-width:1px;stroke-linecap:butt;stroke-linejoin:miter;stroke-opacity:1" />
      <path
         id="path5310"
         d="M 669.63012,857.46588 C 669.46753,857.36833 669.00383,858.46842 668.92301,858.79171 C 668.83148,859.15782 668.50634,859.62505 668.39268,859.85237 C 668.09516,860.44741 668.25741,860.21495 668.83462,860.64786 C 669.20487,860.92554 669.36567,861.17962 669.54173,861.53174 C 669.79998,862.04824 669.94537,862.08122 670.33723,861.8853 C 670.75758,861.67512 671.14194,861.74811 671.57466,861.53174 C 672.05029,861.29393 672.34853,861.37659 672.63532,861.0898 C 672.83165,860.89348 672.92892,860.09221 672.98888,859.85237 C 673.14141,859.24225 673.27712,859.34511 672.8121,858.88009 C 672.51877,858.58677 671.78034,858.36422 671.39789,858.17299 C 671.01815,857.98312 669.33609,857.28946 670.07206,857.73104"
         style="fill:none;fill-rule:evenodd;stroke:#000000;stroke-width:1px;stroke-linecap:butt;stroke-linejoin:miter;stroke-opacity:1" />
      <path
         id="path5319"
         d="M 672.10499,864.97889 C 672.61149,865.10551 671.78968,865.975 671.66305,866.48149 C 671.55394,866.91795 671.20011,867.40737 671.04433,867.71893 C 670.89702,868.01356 671.63359,868.01356 671.92822,868.16087 C 672.44401,868.41877 672.68923,868.80654 673.16565,869.04475 C 673.63485,869.27935 674.10195,868.81557 674.3147,868.60281 C 674.72786,868.18965 675.23293,867.94975 675.64053,867.54215 C 676.11317,867.06951 675.91005,867.10457 675.37536,866.56988 C 675.03884,866.23335 674.62386,865.50841 674.49148,864.97889 C 674.44748,864.80288 673.66492,864.87617 673.25404,864.97889 C 672.93673,865.05822 672.41993,864.97889 672.10499,864.97889 z"
         style="fill:none;fill-rule:evenodd;stroke:#000000;stroke-width:1px;stroke-linecap:butt;stroke-linejoin:miter;stroke-opacity:1" />
      <path
         id="path5321"
         d="M 677.40829,859.67559 C 677.22976,859.72022 676.51275,860.14838 676.08247,860.47108 C 675.59978,860.8331 675.28474,861.18266 675.1102,861.53174 C 675.03782,861.67649 675.59229,862.49594 675.64053,862.5924 C 675.921,863.15335 675.51424,863.3879 676.17086,863.3879 C 676.67604,863.3879 677.15029,863.56826 677.49668,863.74145 C 678.03319,864.00971 677.93717,864.18485 678.46895,863.65306 C 678.7555,863.36652 679.22544,863.09804 679.52961,862.94596 C 680.0958,862.66287 679.77663,862.6082 679.618,861.97369 C 679.47354,861.39581 679.48014,860.83353 679.26445,860.29431 C 679.16973,860.0575 677.7014,860.04197 677.40829,859.67559 z"
         style="fill:none;fill-rule:evenodd;stroke:#000000;stroke-width:1px;stroke-linecap:butt;stroke-linejoin:miter;stroke-opacity:1" />
      <path
         id="path5327"
         d="M 677.50673,863.15067 C 677.31227,863.06072 676.96086,862.95865 676.7258,862.92386 C 676.44687,862.88258 676.28447,862.81118 676.25825,862.71831 C 676.23615,862.64005 676.10115,862.35162 675.95825,862.07735 L 675.69844,861.57868 L 676.07225,861.23686 C 676.27785,861.04886 676.64494,860.76886 676.88801,860.61464 L 677.32995,860.33425 L 678.0111,860.49735 C 678.38573,860.58706 678.72792,860.68251 678.77151,860.70945 C 678.81511,860.7364 678.90251,861.06796 678.96574,861.44626 C 679.02897,861.82456 679.11257,862.22146 679.15153,862.32826 C 679.20678,862.47974 679.18451,862.53444 679.05022,862.57707 C 678.95555,862.60712 678.68008,862.78821 678.43808,862.97951 C 678.19607,863.1708 677.96706,863.32437 677.92917,863.32076 C 677.89128,863.31716 677.70118,863.24061 677.50673,863.15067 L 677.50673,863.15067 z"
         style="opacity:1;fill:#1a1a1a;fill-opacity:1;stroke:#ffffff;stroke-width:0.17677669;stroke-miterlimit:4;stroke-dasharray:none;stroke-opacity:1" />
      <path
         id="path5329"
         d="M 669.91061,861.07174 C 669.81762,860.89908 669.56571,860.59573 669.35081,860.39764 L 668.96006,860.03746 L 669.22693,859.45059 C 669.37371,859.1278 669.55453,858.71455 669.62876,858.53225 C 669.70709,858.33989 669.82422,858.20079 669.90789,858.20079 C 670.1044,858.20079 672.12731,859.07468 672.35204,859.25666 C 672.52135,859.39376 672.52588,859.43583 672.42443,859.9288 C 672.36491,860.21805 672.28132,860.5209 672.23867,860.6018 C 672.1701,860.73188 671.20273,861.09959 670.55436,861.24204 C 670.42519,861.27042 670.26554,861.31434 670.19958,861.33965 C 670.12633,861.36776 670.01389,861.26352 669.91061,861.07174 L 669.91061,861.07174 z"
         style="opacity:1;fill:#1a1a1a;fill-opacity:1;stroke:#ffffff;stroke-width:0.17677669;stroke-miterlimit:4;stroke-dasharray:none;stroke-opacity:1" />
      <path
         id="path5331"
         d="M 672.86797,868.14336 C 672.6015,867.92769 672.26341,867.70358 672.11667,867.64534 C 671.96993,867.5871 671.83606,867.52918 671.81917,867.51663 C 671.80227,867.50408 671.8479,867.38168 671.92055,867.24462 C 671.9932,867.10757 672.17397,866.7369 672.32226,866.42091 C 672.71838,865.5768 672.73783,865.56075 673.44625,865.4934 L 674.07035,865.43405 L 674.24174,865.81485 C 674.33601,866.02429 674.58091,866.4237 674.78596,866.70243 L 675.15877,867.20921 L 674.74176,867.54276 C 674.5124,867.72622 674.1501,868.02615 673.93665,868.20928 C 673.7232,868.3924 673.50444,868.54071 673.45052,868.53886 C 673.3966,868.53701 673.13445,868.35903 672.86797,868.14336 L 672.86797,868.14336 z"
         style="opacity:1;fill:#1a1a1a;fill-opacity:1;stroke:#ffffff;stroke-width:0.17677669;stroke-miterlimit:4;stroke-dasharray:none;stroke-opacity:1" />
      <path
         id="path5333"
         d="M 674.49148,854.46068 C 674.43154,854.66372 674.40309,855.37789 674.40309,855.87489 C 674.40309,855.96707 675.34968,856.25979 675.46375,856.31683 C 675.88837,856.52914 676.13115,856.66046 676.52441,856.75877 C 676.90506,856.85394 677.25976,856.9299 677.67346,856.84716 C 678.13842,856.75417 678.54399,856.69582 678.99928,856.582 C 679.17833,856.53723 679.5192,856.582 679.52961,856.582"
         style="fill:none;fill-rule:evenodd;stroke:#000000;stroke-width:1px;stroke-linecap:butt;stroke-linejoin:miter;stroke-opacity:1" />
      <path
         id="path5336"
         d="M 676.79679,856.25112 C 676.61017,856.20725 676.19253,856.0577 675.86871,855.91877 C 675.54489,855.77985 675.21034,855.642 675.12526,855.61244 C 675.01242,855.57322 674.97058,855.46232 674.97058,855.20236 L 674.97058,854.84603 L 675.43462,854.84757 C 676.04124,854.84957 676.98544,855.05284 677.41399,855.27368 C 677.60144,855.37028 677.93068,855.60094 678.14563,855.78626 L 678.53645,856.1232 L 678.01305,856.23206 C 677.40833,856.35784 677.26062,856.36015 676.79679,856.25112 L 676.79679,856.25112 z"
         style="opacity:1;fill:#1a1a1a;fill-opacity:1;stroke:#ffffff;stroke-width:0.17677669;stroke-miterlimit:4;stroke-dasharray:none;stroke-opacity:1" />
      <path
         id="path5356"
         d="M 666.62492,863.29951 C 666.50706,863.29951 666.50706,863.29951 666.62492,863.29951 z"
         style="fill:none;fill-rule:evenodd;stroke:#000000;stroke-width:1px;stroke-linecap:butt;stroke-linejoin:miter;stroke-opacity:1" />
      <path
         id="path5376"
         d="M 666.27136,863.47629 C 666.39842,863.50805 667.29449,863.5111 667.86235,863.65306 C 668.66565,863.85389 668.3895,863.75419 668.21591,864.44856 C 668.11579,864.84904 667.88608,865.3008 667.59719,865.686 C 667.30952,866.06956 667.38822,866.6179 667.42041,866.74666"
         style="fill:none;fill-rule:evenodd;stroke:#000000;stroke-width:1px;stroke-linecap:butt;stroke-linejoin:miter;stroke-opacity:1" />
      <path
         id="path5378"
         d="M 666.75534,865.38235 C 666.70566,865.19786 666.58519,864.81489 666.48763,864.53133 L 666.31025,864.01575 L 666.9502,864.07777 C 667.30218,864.11188 667.6216,864.1703 667.66004,864.2076 C 667.73537,864.28071 667.02439,865.7178 666.91289,865.7178 C 666.87592,865.7178 666.80502,865.56685 666.75534,865.38235 L 666.75534,865.38235 z"
         style="opacity:1;fill:#1a1a1a;fill-opacity:1;stroke:#ffffff;stroke-width:0.17677669;stroke-miterlimit:4;stroke-dasharray:none;stroke-opacity:1" />
      <path
         id="path5384"
         d="M 643.42157,779.69292 C 643.51856,779.71717 641.48954,779.07933 638.42157,779.69292 C 636.29859,780.11752 634.44835,781.98163 633.42157,783.69292 C 632.24722,785.65018 633.17912,787.78884 634.17157,789.44292 C 635.03155,790.87621 638.07424,792.18242 639.42157,793.19292 C 641.30734,794.60725 644.23414,793.94292 646.42157,793.94292 C 648.48119,793.94292 649.79524,793.19558 650.67157,791.44292 C 651.74351,789.29904 651.49016,786.96727 650.92157,784.69292 C 649.68859,779.76099 645.07596,780.93371 642.42157,778.94292 C 642.02097,778.64247 641.57609,779.99977 641.42157,780.19292"
         style="fill:none;fill-rule:evenodd;stroke:#000000;stroke-width:1px;stroke-linecap:butt;stroke-linejoin:miter;stroke-opacity:1" />
      <path
         id="path5386"
         d="M 639.42157,787.44292 C 638.27459,786.58269 641.53066,789.59519 642.92157,789.94292 C 645.28244,790.53314 646.11854,789.74596 647.67157,788.19292 C 647.88403,787.98046 648.17157,787.85959 648.42157,787.69292"
         style="fill:none;fill-rule:evenodd;stroke:#000000;stroke-width:1px;stroke-linecap:butt;stroke-linejoin:miter;stroke-opacity:1" />
      <path
         id="path5388"
         d="M 644.17157,782.69292 C 644.9376,781.92689 643.68709,784.97396 644.17157,785.94292"
         style="fill:none;fill-rule:evenodd;stroke:#000000;stroke-width:1px;stroke-linecap:butt;stroke-linejoin:miter;stroke-opacity:1" />
      <path
         id="path5390"
         d="M 648.42157,783.69292 C 648.66453,783.44997 648.2549,784.35959 648.17157,784.69292 C 648.08824,785.02626 648.33824,784.02626 648.42157,783.69292 z"
         style="fill:none;fill-rule:evenodd;stroke:#000000;stroke-width:1px;stroke-linecap:butt;stroke-linejoin:miter;stroke-opacity:1" />
      <path
         id="path5392"
         d="M 640.42157,782.44292 C 640.04365,783.9546 642.23043,783.89001 640.42157,782.44292 z"
         style="fill:none;fill-rule:evenodd;stroke:#000000;stroke-width:1px;stroke-linecap:butt;stroke-linejoin:miter;stroke-opacity:1" />
      <path
         id="path5404"
         d="M 642.17157,810.19292 C 643.42293,810.19292 646.05344,812.57479 647.42157,813.94292 C 648.6045,815.12585 649.42265,816.444 650.67157,817.69292 C 651.52824,818.54959 652.65117,819.11512 653.42157,819.69292 C 654.23791,820.30518 655.34505,818.76944 656.42157,817.69292 C 657.4261,816.6884 659.64834,816.07954 660.92157,815.44292 C 661.2549,815.27626 661.58824,815.10959 661.92157,814.94292 C 663.50477,814.15132 665.43224,813.62776 667.17157,813.19292 C 668.11784,812.95636 668.9753,812.42949 669.92157,812.19292"
         style="fill:none;fill-rule:evenodd;stroke:#000000;stroke-width:2;stroke-linecap:butt;stroke-linejoin:miter;stroke-miterlimit:4;stroke-dasharray:none;stroke-opacity:1" />
      <path
         id="path5406"
         d="M 635.17157,808.69292 C 636.5098,808.35837 632.5251,809.61528 631.42157,810.44292 C 630.28651,811.29422 629.33818,812.60962 628.17157,813.19292 C 626.72195,813.91773 625.46312,814.97426 624.17157,815.94292 C 622.62952,817.09946 620.65807,817.70642 619.42157,818.94292 C 619.38744,818.97705 620.17157,823.71184 620.17157,824.44292 C 620.17157,825.96082 619.92157,827.6116 619.92157,829.19292 C 619.92157,830.75976 620.05437,830.45851 620.42157,831.19292"
         style="fill:none;fill-rule:evenodd;stroke:#000000;stroke-width:2;stroke-linecap:butt;stroke-linejoin:miter;stroke-miterlimit:4;stroke-dasharray:none;stroke-opacity:1" />
      <path
         id="path5408"
         d="M 619.58085,844.88196 C 620.14867,844.0501 620.97757,842.39073 621.42284,841.19446 C 621.86811,839.99821 622.73843,838.00694 623.35688,836.76944 C 623.97532,835.53194 624.78029,833.61944 625.14568,832.51944 C 625.51106,831.41944 626.59829,829.05694 627.56172,827.26944 C 630.31167,822.16731 631.46194,819.68481 635.38079,810.39444 C 638.03713,804.09706 638.51153,803.14457 638.99229,803.14318 C 639.32572,803.14221 639.56657,802.63779 640.02371,800.98306 C 640.71572,798.47815 641.30615,796.89444 641.54803,796.89444 C 641.64146,796.89444 642.15066,797.99131 642.67959,799.33194 C 643.92558,802.49009 649.59093,813.73352 651.13387,816.1103 C 651.79114,817.12277 652.28459,817.99548 652.23042,818.04965 C 652.17626,818.10381 651.47869,817.44418 650.68027,816.58379 C 647.15838,812.78852 645.83394,811.51888 644.45104,810.61226 C 642.70006,809.46434 642.0523,809.37176 642.0523,810.26944 C 642.0523,810.61319 642.19293,810.89552 642.3648,810.89684 C 643.05431,810.90215 646.22458,813.61177 648.26412,815.93897 C 650.21942,818.17007 652.84266,820.39444 653.51851,820.39444 C 653.66246,820.39444 654.25282,821.21006 654.83041,822.20694 C 656.5319,825.14358 659.12177,828.84655 661.2949,831.44979 C 662.96328,833.44837 666.9057,837.28291 673.77995,843.59317 L 674.6773,844.4169 L 671.9273,844.21817 C 668.45686,843.96738 651.20162,844.0809 642.8023,844.40978 C 636.51688,844.65589 633.27444,844.91018 623.9273,845.89008 C 621.3148,846.16396 619.03581,846.38948 618.86287,846.39124 C 618.68993,846.393 619.01302,845.71382 619.58085,844.88196 L 619.58085,844.88196 z M 639.0523,805.26944 C 639.39012,804.86239 639.30932,804.8115 638.69775,805.04619 C 638.48025,805.12965 638.3023,805.2984 638.3023,805.42119 C 638.3023,805.76699 638.70739,805.68503 639.0523,805.26944 z"
         style="opacity:1;fill:url(#linearGradient5416);fill-opacity:1;stroke:#ffffff;stroke-width:0.5;stroke-miterlimit:4;stroke-dasharray:none;stroke-opacity:1" />
      <path
         id="path5418"
         d="M 663.42157,856.69292 C 662.76806,856.65427 660.37278,856.94292 658.92157,856.94292"
         style="fill:none;fill-rule:evenodd;stroke:#000000;stroke-width:1px;stroke-linecap:butt;stroke-linejoin:miter;stroke-opacity:1" />
      <path
         id="path5420"
         d="M 660.92157,861.19292 C 659.73965,861.07614 658.44338,861.23856 657.42157,861.44292"
         style="fill:none;fill-rule:evenodd;stroke:#000000;stroke-width:1px;stroke-linecap:butt;stroke-linejoin:miter;stroke-opacity:1" />
      <path
         id="path5422"
         d="M 663.42157,865.19292 C 663.2549,865.19292 663.08824,865.19292 662.92157,865.19292 C 662.15327,865.19292 661.42157,865.52626 660.67157,865.69292"
         style="fill:none;fill-rule:evenodd;stroke:#000000;stroke-width:1px;stroke-linecap:butt;stroke-linejoin:miter;stroke-opacity:1" />
      <path
         id="path5424"
         d="M 646.17157,860.44292 C 645.5472,860.58167 643.4798,860.86318 642.92157,860.94292"
         style="fill:none;fill-rule:evenodd;stroke:#000000;stroke-width:1px;stroke-linecap:butt;stroke-linejoin:miter;stroke-opacity:1" />
      <path
         id="path5426"
         d="M 649.92157,867.69292 C 643.38807,869.14481 654.81818,866.34377 646.42157,868.44292"
         style="fill:none;fill-rule:evenodd;stroke:#000000;stroke-width:1px;stroke-linecap:butt;stroke-linejoin:miter;stroke-opacity:1" />
      <path
         id="path5428"
         d="M 656.67157,874.94292 C 654.87334,875.34253 654.29479,875.42239 652.67157,875.69292"
         style="fill:none;fill-rule:evenodd;stroke:#000000;stroke-width:1px;stroke-linecap:butt;stroke-linejoin:miter;stroke-opacity:1" />
    </g>
  </g>
</svg>
